<svg width="21" height="20" viewBox="0 0 21 20" fill="none" xmlns="http://www.w3.org/2000/svg">
<path fill-rule="evenodd" clip-rule="evenodd" d="M0.865601 10C0.865601 4.579 5.44826 0 10.8736 0C16.2989 0 20.8816 4.579 20.8816 10C20.8816 13.19 19.2883 16.078 16.8784 17.924V18H16.7763C15.107 19.245 13.0624 20 10.8736 20C8.68485 20 6.64022 19.245 4.97088 18H4.8688V17.924C2.45887 16.078 0.865601 13.189 0.865601 10ZM7.99477 15.236C7.46241 15.6639 7.09194 16.2604 6.94446 16.927C8.11339 17.604 9.45647 18 10.8736 18C12.2907 18 13.6338 17.604 14.8027 16.927C14.6551 16.2605 14.2846 15.6641 13.7523 15.2362C13.2199 14.8083 12.5576 14.5744 11.8744 14.573H9.8728C9.18955 14.5742 8.52712 14.808 7.99477 15.236ZM14.6443 13.4117C15.465 13.9574 16.1063 14.7329 16.4881 15.641C17.9563 14.182 18.88 12.176 18.88 10C18.88 5.663 15.2141 2 10.8736 2C6.53313 2 2.8672 5.663 2.8672 10C2.8672 12.176 3.79094 14.182 5.25911 15.641C5.64086 14.7329 6.2822 13.9574 7.10285 13.4117C7.92351 12.866 8.88702 12.5742 9.8728 12.573H11.8744C12.8602 12.5742 13.8237 12.866 14.6443 13.4117ZM6.8704 8C6.8704 5.72 8.59178 4 10.8736 4C13.1554 4 14.8768 5.72 14.8768 8C14.8768 10.28 13.1554 12 10.8736 12C8.59178 12 6.8704 10.28 6.8704 8ZM8.872 8C8.872 9.178 9.69466 10 10.8736 10C12.0525 10 12.8752 9.178 12.8752 8C12.8752 6.822 12.0525 6 10.8736 6C9.69466 6 8.872 6.822 8.872 8Z" fill="#9B9B9B"/>
</svg>
